<?xml version="1.0" encoding="UTF-8"?>
<svg id="Layer_2" data-name="Layer 2" xmlns="http://www.w3.org/2000/svg" viewBox="0 0 96.38 92.5">
  <defs>
    <style>
      .cls-1 {
        fill: #6db4e3;
      }

      .cls-2 {
        fill: #d41210;
      }
    </style>
  </defs>
  <g id="Layer_1-2" data-name="Layer 1">
    <g>
      <rect class="cls-1" x="74.88" width="21.5" height="21.5" rx="2.06" ry="2.06"/>
      <rect class="cls-1" x="63.75" y="30.12" width="32.63" height="32.63" rx="2.06" ry="2.06"/>
      <path class="cls-1" d="M66.62,.11V92.39c0,.06-.05,.11-.11,.11h-13.07c-.09,0-.14-.09-.1-.16,.95-1.66,8.66-15.81,5.55-31.33s-10.65-28.66-10.77-28.88c0,0,0,0,0,0-.08-.24-5.08-15.07,0-23.75L52.78,.35c.13-.22,.36-.35,.61-.35h13.12c.06,0,.11,.05,.11,.11Z"/>
      <path class="cls-2" d="M30.38,.18V29.95c0,.1-.08,.18-.18,.18H.18c-.1,0-.18,.08-.18,.18v9.52c0,.1,.08,.18,.18,.18H10.44c.1,0,.18,.08,.18,.18l-.24,12.39c0,.1-.08,.18-.18,.18H.18c-.1,0-.18,.08-.18,.18v9.64c0,.1,.08,.18,.18,.18l30.01-.49c.1,0,.18,.08,.18,.18v29.89c0,.1,.08,.18,.18,.18h12.48c.05,0,.1-.02,.14-.06,.72-.9,9.05-11.59,8.58-23.19,0,0-.05-16.09-9.33-31.13,0,0-3.02-5.37-3.63-8.49-.97-4.91-.49-10.29-.12-14.25,.59-6.29,3.04-11.81,5.59-15.1,.09-.12,0-.28-.14-.28h-13.57c-.1,0-.18,.08-.18,.18Z"/>
    </g>
  </g>
</svg>